<svg id="visual" viewBox="0 0 960 540" width="960" height="540" xmlns="http://www.w3.org/2000/svg" xmlns:xlink="http://www.w3.org/1999/xlink" version="1.1"><path d="M0 71L87 71L175 55L262 114L349 77L436 55L524 93L611 44L698 87L785 60L873 87L960 82L960 0L873 0L785 0L698 0L611 0L524 0L436 0L349 0L262 0L175 0L87 0L0 0Z" fill="#00cc8e"></path><path d="M0 222L87 293L175 136L262 244L349 206L436 287L524 174L611 185L698 222L785 179L873 260L960 228L960 80L873 85L785 58L698 85L611 42L524 91L436 53L349 75L262 112L175 53L87 69L0 69Z" fill="#00b98a"></path><path d="M0 309L87 336L175 201L262 287L349 271L436 368L524 239L611 271L698 293L785 266L873 336L960 287L960 226L873 258L785 177L698 220L611 183L524 172L436 285L349 204L262 242L175 134L87 291L0 220Z" fill="#00a784"></path><path d="M0 492L87 438L175 417L262 449L349 471L436 460L524 417L611 438L698 433L785 428L873 482L960 482L960 285L873 334L785 264L698 291L611 269L524 237L436 366L349 269L262 285L175 199L87 334L0 307Z" fill="#00957c"></path><path d="M0 541L87 541L175 541L262 541L349 541L436 541L524 541L611 541L698 541L785 541L873 541L960 541L960 480L873 480L785 426L698 431L611 436L524 415L436 458L349 469L262 447L175 415L87 436L0 490Z" fill="#038373"></path></svg>