<?xml version="1.0" encoding="utf-8"?>
<!-- Generator: Adobe Illustrator 27.5.0, SVG Export Plug-In . SVG Version: 6.00 Build 0)  -->
<svg version="1.1" xmlns="http://www.w3.org/2000/svg" xmlns:xlink="http://www.w3.org/1999/xlink" x="0px" y="0px"
	 viewBox="0 0 1000 800" style="enable-background:new 0 0 1000 800;" xml:space="preserve">
<g id="background">
	<rect x="0" y="0" style="fill:#FFFFFF;" width="1000" height="800"/>
</g>
<g id="shadow">
	<g style="opacity:0.5;">
		<path style="fill:#EED5D5;" d="M485.528,654.811c-25.32,0.072-50.64,0.651-75.915,3.328c-9.53,1.009-18.86,3.229-28.412,4.124
			c-19.079,1.789-37.817,5.125-56.963,6.664c-15.418,1.239-30.902,1.971-46.276,3.543c-14.414,1.474-30.371,1.134-44.674-1.301
			c-10.589-1.803-21.225-2.818-31.636-5.714c-11.646-3.24-24.298-5.556-36.432-5.473c-17.303,0.119-34.153,0.133-50.712,5.853
			c-5.813,2.008-12.929,5.309-17.342,9.523c-10.104,9.647-11.472,33.718-1.383,43.723c16.993,16.839,53.262,23.447,77.082,23.759
			c26.101,0.342,51.458-1.503,77.598-2.588c24.289-1.008,48.518-2.442,72.848-2.392c49.691,0.103,99.388,0,148.989-3.16
			c46.601-2.969,93.32-1.95,140.023-1.95c47.892,0,95.461,0.359,143.008,6.419c20.717,2.64,41.823,3.565,62.643,5.415
			c18.647,1.657,36.566-0.033,55.138-1.564c15.595-1.286,31.089-5.099,45.256-11.546c11.215-5.103,31.209-20.956,34.648-33.136
			c9.642-34.148-135.884-33.327-158.228-33.25c-24.996,0.086-50.19,0.869-75.166-0.039c-10.506-0.382-20.858-2.337-31.111-4.479
			c-10.213-2.134-20.504-1.591-30.861-2.488c-43.192-3.74-86.479-3.193-129.809-3.193
			C513.743,654.889,499.636,654.771,485.528,654.811z"/>
	</g>
</g>
<g id="object">
	<g>
		<g>
			<g>
				<g>
					<polygon style="fill:#353A85;" points="903.146,522.503 905.935,587.179 897.76,697.149 885.529,698.018 870.668,598.139 
						850.11,513.622 					"/>
					<polygon style="fill:#2F3677;" points="885.966,703.17 899.663,708.844 905.807,701.761 898.723,695.617 885.496,696.557 					
						"/>
				</g>
				<g>
					<polygon style="fill:#353A85;" points="816.561,499.617 813.876,548.504 821.841,693.864 834.088,694.476 852.443,599.139 
						868.633,494.589 					"/>
					<polygon style="fill:#2F3677;" points="833.759,699.637 820.185,705.597 813.893,698.644 820.846,692.353 834.09,693.015 					
						"/>
				</g>
				<g>
					<path style="fill:#474EBB;" d="M887.771,355.599l-38.218-4.094c0,0-21.261,2.272-35.687,52.763
						c-8.026,28.091-10.469,72.349-11.057,106.091c0.903,4.813,6.147,25.896,28.319,22.32c38.077-6.141,58.344-12.283,74.926-9.212
						c14.125,3.071,12.931-16.377,11.379-31.218l-5.629-45.92L887.771,355.599z"/>
				</g>
				<g>
					<path style="fill:#C67A6D;" d="M880.39,308.028c-9.633-2.124-19.547-4.026-29.19-2.117c-2.112,0.418-4.379,1.153-5.525,2.976
						c-0.444,0.706-0.679,1.521-0.895,2.327c-2.434,9.046-5.52,22.454,0.434,30.789c1.136,1.589,2.661,2.851,4.299,3.875
						c2.191,1.369,4.617,2.3,7.126,2.796c-0.519,2.249-1.241,4.451-2.157,6.569c2.205,3.325,12.492,3.724,14.394,0.536
						c0.106-2.758,0.213-5.517,0.319-8.275c1.252-0.506,2.462-1.121,3.598-1.869c4.397-2.896,7.293-7.29,8.976-12.206
						c1.832-5.353,4.41-10.441,6.084-15.897c0.61-1.987,1.091-4.256,0.045-6.053c-1.113-1.913-3.516-2.564-5.676-3.045
						C881.613,308.298,881.002,308.163,880.39,308.028z"/>
					<path style="fill:#292949;" d="M848.328,313.199c4.761-3.062,11.904-4.38,16.381-4.056
						c13.535,0.981,18.493,10.92,19.216,23.365c3.729-4.739,10.726-10.7,11.149-16.798c0.346-4.992-0.345-11.798-3.141-16.109
						c-2.617-4.033-9.308-6.249-13.286-8.586c-3.751-2.203-7.502-4.406-11.252-6.61c-0.78-0.458-1.582-0.925-2.473-1.079
						c-1.054-0.183-2.128,0.087-3.164,0.354c-8.865,2.291-17.73,4.582-26.595,6.874c-1.703,0.44-3.643,1.083-4.271,2.726
						c-0.382,1-0.157,2.116,0.071,3.161c1.006,4.602,2.939,9.306,3.417,13.967c0.541,2.708,2.156,16.59,6.952,14.988
						c1.408-2.302,1.619-5.139,2.716-7.605C844.858,315.97,846.397,314.441,848.328,313.199z"/>
				</g>
				<polygon style="fill:#474EBB;" points="849.553,351.505 835.428,355.804 783.839,409.849 780.768,427.659 805.431,468.379 
					812.09,453.453 801.649,423.36 818.232,411.691 840.341,361.945 				"/>
			</g>
			<polygon style="fill:#474EBB;" points="879.664,358.868 905.935,330.488 899.746,253.571 911.289,248.501 926.991,326.526 
				922.186,345.972 892.735,386.6 			"/>
		</g>
		<g id="XMLID_203_">
			<g id="XMLID_205_">
				<g id="XMLID_220_">
					<g id="XMLID_222_">
						<path style="fill:#292949;" d="M735.096,680.383c1.305-1.437,2.829-2.221,4.55-1.95c1.653,0.26,3.14,1.38,3.822,2.879
							c0.465,1.022,0.563,2.162,0.655,3.276c0.477,5.769,0.433,19.467-7.252,21.44c-3.23,0.828-5.901-1.466-6.764-4.366
							C728.808,697.291,730.732,685.188,735.096,680.383z"/>
					</g>
					<g id="XMLID_221_">
						<path style="fill:#EFBFA5;" d="M732.362,593.347l0.402,35.19c-0.468,15.631,1.973,31.349,1.505,46.981
							c-0.108,3.594-1.044,7.386-0.139,10.948c0.886,3.485,3.717,4.101,6.624,2.336c3.894-2.364,3.267-7.886,3.915-11.914
							c1.782-11.069,3.872-22.086,5.733-33.142c0.912-5.42-0.968-13.016-0.559-18.501c0-0.003,5.685-29.492,5.685-29.492
							L732.362,593.347z"/>
					</g>
				</g>
				<g id="XMLID_219_">
					<polygon style="fill:#474EBB;" points="772.569,536.487 757.254,604.521 754,668.77 729.714,668.225 723.111,488.511 
						770.19,489.366 					"/>
				</g>
				<g id="XMLID_214_">
					<g id="XMLID_216_">
						<g id="XMLID_218_">
							<path style="fill:#292949;" d="M700.359,679.104c1.362-1.361,2.914-2.056,4.618-1.684c1.636,0.358,3.071,1.566,3.686,3.107
								c0.419,1.05,0.469,2.196,0.513,3.318c0.228,5.802-0.4,19.508-8.144,21.029c-3.254,0.638-5.819-1.816-6.555-4.769
								C693.369,695.655,695.804,683.656,700.359,679.104z"/>
						</g>
						<g id="XMLID_217_">
							<path style="fill:#EFBFA5;" d="M713.159,598.287l-2.061,35.133c-0.168,9.764-1.469,19.452-2.48,29.15
								c-0.939,9.008,0.523,18.391-4.185,26.584c-1.476,2.569-4.46,4.279-6.545,1.158c-1.607-2.406-0.653-6.418-0.961-9.147
								c-1.258-11.14-2.826-22.242-4.164-33.372c-0.656-5.457,1.581-12.957,1.431-18.455c0-0.003-4.289-29.724-4.289-29.724
								L713.159,598.287z"/>
						</g>
					</g>
					<g id="XMLID_215_">
						<polygon style="fill:#474EBB;" points="682.427,532.326 680.45,598.369 690.815,665.154 715.518,665.893 714.428,593.615 
							727.5,533.675 731.888,494.44 692.69,489.817 						"/>
					</g>
				</g>
				<g id="XMLID_213_">
					<polygon style="fill:#D67086;" points="713.435,354.658 755.665,353.649 780.15,399.186 771.447,441.837 769.898,492.879 
						709.659,493.701 689.838,490.483 695.101,435.946 692.083,363.094 					"/>
				</g>
				<g id="XMLID_212_">
					<polygon style="fill:#D67086;" points="757.066,356.79 791.346,409.003 786.195,438.09 733.102,474.869 723.111,466.134 
						758.606,421.265 757.229,392.909 					"/>
				</g>
				<g id="XMLID_211_">
					<polygon style="fill:#D67086;" points="711.323,382.249 689.327,426.223 665.609,430.937 606.516,405.134 616.709,393.573 
						670.6,403.436 692.083,363.094 					"/>
				</g>
				<g id="XMLID_206_">
					<g id="XMLID_210_">
						<path style="fill:#EFBFA5;" d="M716.08,319.275c6.366-18.509,30.801-11.573,35.838,4.908
							c3.286,10.75-5.017,24.701-16.156,27.789c-0.049,0.423-0.086,0.819-0.087,1.154c-0.008,1.725-0.22,3.427-0.476,5.151
							c-0.096,0.643-9.844-1.23-10.931-1.444c-0.38-0.075-0.805-0.178-1.009-0.497c-0.393-0.612,0.246-2.415,0.318-3.095
							c0.084-0.803,0.168-1.606,0.253-2.409c-5.495-2.682-8.962-8.394-9.93-14.21C712.926,330.78,714.167,324.837,716.08,319.275z"
							/>
					</g>
					<g id="XMLID_207_">
						<g id="XMLID_209_">
							<path style="fill:#292949;" d="M732.021,302.55c1.31,1.33,1.825,3.186,2.203,4.967c0.226,1.064,0.42,2.164,0.192,3.218
								c-0.908,4.202-5.075,3.982-8.298,5.336c-3.974,1.67-7.402,4.745-9.627,8.286c-3.485,5.545-1.917,12.68-0.504,18.797
								c0.498,2.155,1.5,5.36-0.171,7.283c-1.699,1.954-5.625,1.652-7.659,0.647c-1.859-0.918-3.386-2.617-5.427-2.959
								c-2.16-0.362-5.08,0.588-6.085-1.394c-0.28-0.551-0.306-1.226-0.659-1.731c-1.194-1.707-4.163,0.292-5.845-0.911
								c-1.035-0.74-1.028-2.318-0.678-3.566c0.35-1.248,0.939-2.513,0.695-3.783c-0.21-1.091-0.997-1.954-1.483-2.946
								c-0.961-1.961-0.629-4.515,0.802-6.171c2.66-3.079,7.809-2.495,10.659-5.39c1.485-1.509,2.06-3.685,2.614-5.744
								c0.553-2.059,1.218-4.231,2.805-5.626c1.961-1.724,4.792-1.431,6.727-3.476c1.137-1.201,1.895-2.765,3.171-3.81
								c1.682-1.378,4.969-2.437,7.061-3.14C725.831,299.323,729.542,300.033,732.021,302.55z"/>
						</g>
						<g id="XMLID_208_">
							<path style="fill:#292949;" d="M747.477,332.087c0.114,6.092-2.912,12.678-0.106,18.04c2.832,5.412,9.892,6.387,15.909,6.669
								c0.99,0.046,13.689,1.143,13.742,0.902c0.951-4.243,1.934-8.571,4.152-12.297c2.218-3.726,5.926-6.813,10.173-7.078
								c-1.225-0.212-1.843-1.712-1.702-2.977c0.142-1.265,0.797-2.405,1.175-3.62c0.93-2.986,0.025-6.47-2.226-8.568
								c-4.492-4.187-12.637-2.448-16.487-7.257c-2.388-2.982-2.103-7.307-3.355-10.947c-2.419-7.039-10.126-8.512-15.886-11.691
								c-6.081-3.356-11.806-5.195-18.824-4.025c-8.7,1.45-15.167,10.307-11.811,18.642c4.304,10.69,21.508,9.768,24.73,20.622
								C747.306,329.669,747.454,330.868,747.477,332.087z"/>
						</g>
					</g>
				</g>
			</g>
			<g id="XMLID_204_">
				<polygon style="fill:#FFFFFF;" points="743.173,354.416 730.072,372.932 723.913,372.428 713.649,353.649 				"/>
			</g>
		</g>
		<polygon style="fill:#474EBB;" points="229.591,370.125 275.38,403.537 315.309,386.285 321.169,397.057 290.928,417.654 
			273.976,423.991 229.591,402.621 		"/>
		<g>
			<polygon style="fill:#2F3677;" points="286.813,689.327 285.851,696.804 299.844,706.203 308.282,699.688 301.766,691.25 
				287.774,681.85 			"/>
			<g>
				<polygon style="fill:#292949;" points="286.34,686.817 297.131,591.462 284.147,484.712 287.067,462.005 345.057,459.802 
					347.15,496.761 337.415,591.609 300.79,691.69 				"/>
			</g>
			<polygon style="fill:#BABCBE;" points="350.501,354.297 379.67,362.241 413.406,422.018 397.426,436.814 374.936,410.181 			"/>
			<g>
				<polygon style="fill:#292949;" points="387.609,470.487 387.761,566.713 368.392,690.587 354.451,690.448 346.788,575.893 
					328.852,461.236 				"/>
				<polygon style="fill:#2F3677;" points="354.473,696.328 369.474,704.016 377.087,696.553 369.624,688.94 354.548,688.789 				
					"/>
			</g>
			<g>
				<path style="fill:#BABCBE;" d="M278.146,503.214c0.133-4.17,0.365-7.65,0.398-8.892c0.298-11.186,1.295-22.347,2.696-33.453
					c1.255-9.953,2.839-34.661,4.542-44.553c1.407-8.167,6.307-28.552,9.848-36.128c8.806-18.839,6.085-20.579,44.765-26.172
					c16.952-2.452,20.959,8.113,34.818,20.262c1.367,1.198,1.292,8.333,1.609,10.222c0.559,3.327,1.157,6.648,1.843,9.954
					c0.539,2.598,1.134,5.189,1.802,7.762l-0.001-0.001c0,0,11.635,52.947,19.329,64.192c7.694,11.245,23.59,26.966-3,36.565
					c-4.712,1.523-9.454,2.973-14.358,3.747c0,0-21.746-2.417-32.929-2.333c-10.3,0.077-20.642,1.119-30.768,2.865
					c-6.771,1.132-13.681,2.776-19.738,5.94c-5.779,3.018-9.949,7.459-15.813,10.584c-0.555,0.296-1.164,0.602-1.796,0.515
					C278.025,523.824,277.867,511.991,278.146,503.214z"/>
			</g>
			<g>
				<path style="fill:#EFBFA5;" d="M340.439,359.328c-1.951,0.964-6.558,1.31-11.363-0.572c-0.968-0.379-1.622-1.313-1.608-2.353
					c0.038-2.919,0.273-5.835,0.702-8.722c-3.604-1.267-7.769-3.168-8.397-6.936c-0.198-1.187,0.007-2.4,0.212-3.586
					c0.847-4.902,1.694-9.804,2.541-14.705c0.293-1.695,0.605-3.441,1.527-4.893c1.618-2.549,4.758-3.664,7.732-4.18
					c7.591-1.318,15.862,0.327,21.747,5.298c1.566,1.323,2.983,2.914,3.673,4.844c1.065,2.977,0.268,6.26-0.534,9.318
					c-0.741,2.822-1.482,5.645-2.223,8.467c-0.852,3.246-2.083,6.936-5.211,8.154c-1.661,0.646-3.621,0.458-5.125,1.414
					C341.461,352.562,341.818,356.504,340.439,359.328z"/>
				<path style="fill:#292949;" d="M384.248,310.443c0.746-1.224,1.549-2.405,2.447-3.513c1.947-2.4,4.345-4.457,5.911-7.12
					c1.566-2.663,2.117-6.274,0.238-8.727c-1.213-1.583-3.181-2.374-5.094-2.937c-6.303-1.855-13.106-1.981-19.474-0.36
					c-6.065,1.544-11.493,4.1-17.598,1.82c-5.736-2.142-9.88-1.27-15.875,0.87c-6.488,2.315-15.198,2.861-21.07,6.129
					c-2.452,1.365-4.409,3.497-5.934,5.853c-5.285,8.162-5.314,19.416-0.072,27.605c1.176,1.837,2.583,3.517,4.062,5.12
					c3.061,3.319,6.722,7.419,10.933,8.649c0.1-3.767-3.331-15.644-0.438-18.731c4.591-4.899,14.97-3.19,20.665-1.984
					c6.212,1.316,11.749,5.715,17.907,6.655c4.431,0.676,10.087-1.497,13.856-3.787
					C379.362,323.157,381.527,314.911,384.248,310.443z"/>
			</g>
			<polygon style="fill:#BABCBE;" points="308.282,361.255 284.147,382.402 257.224,438.982 291.23,479.438 297.08,456.815 			"/>
		</g>
		<g>
			<g>
				<polygon style="fill:#8CABEF;" points="210.359,534.081 158.635,516.723 171.753,606.088 167.856,683.623 167.706,684.143 
					167.829,684.153 167.45,691.69 176.426,691.69 176.676,690.587 176.676,690.587 198.894,615.448 208.725,541.689 
					208.725,541.689 				"/>
				<polygon style="fill:#292949;" points="177.521,688.536 167.041,688.571 164.62,697.484 164.887,697.555 164.82,697.564 
					182.426,707.327 190.684,708.006 191.461,698.568 189.19,697.003 				"/>
			</g>
			<g>
				<polygon style="fill:#8CABEF;" points="250.595,534.622 239.244,694.027 230.586,696.403 216.959,606.732 196.95,524.678 				
					"/>
				<polygon style="fill:#292949;" points="239.707,692.154 253.345,699.379 252.269,705.747 228.187,702.82 229.336,693.656 				
					"/>
			</g>
			<g>
				<path style="fill:#474EBB;" d="M144.529,559.901c-1.08-26.028,22.167-108.795,22.167-108.795l-0.004-0.002
					c2.458-7.777,4.333-15.687,5.457-23.618c0.799-5.646,17.718-69.815,16.596-69.897c11.654,0.851,34.125-1.904,42.757,6.373
					c0.247,0.237,0.482,0.482,0.705,0.737c6.73,7.675,10.226,23.215,13.408,32.78c4.18,12.564,7.391,25.45,9.584,38.508
					c1.917,11.419,3.056,22.951,3.861,34.497c0.692,9.925,0.143,19.795,0.481,29.559c0.374,10.808,3.616,22.527,6.035,33.042
					c2.435,10.59,5.527,21.053,9.804,31.054c-11.571,5.121-24.458,6.505-37.111,6.553c-12.653,0.048-25.29-1.172-37.942-0.978
					c-10.698,0.164-21.528,1.33-32.011-0.815C159.981,567.193,152.285,563.482,144.529,559.901L144.529,559.901z"/>
			</g>
			<g>
				<path style="fill:#292949;" d="M228.644,330.373c5.318,2.628,10.863,9.402,10.521,15.708c-0.165,3.037-1.845,5.396-1.892,8.653
					c-0.118,6.422-9.853,13.143-3.895,19.336c3.063,3.183,7.85,3.807,12.245,4.248c0.533,0.053,1.092,0.103,1.585-0.105
					c0.813-0.343,1.208-1.306,1.19-2.188c-0.018-0.882-0.359-1.719-0.626-2.56c-2.796-8.789,1.426-19.039,1.924-27.994
					c0.497-8.938-1.618-18.588-8.946-24.412c-4.914,1.499-8.575,3.574-10.99,8.108L228.644,330.373z"/>
				<path style="fill:#C67A6D;" d="M225.339,368.518c6.059-0.763,11.209-5.235,14.032-10.65c2.822-5.415,3.606-11.671,3.634-17.777
					c0.096-20.322-25.05-21.693-35.159-7.186C199.036,345.547,207.721,370.737,225.339,368.518z"/>
				<path style="fill:#292949;" d="M194.896,370.996c3.121-0.889,6.213-1.869,8.63-4.506c3.905-4.262,5.071-12.288,6.912-17.598
					c1.938-5.598,4.23-11.645,9.317-14.68c3.322-1.982,6.668-1.829,10.308-1.177c2.493,0.447,2.404,1.405,4.767,0.484
					c1.811-0.707,3.785-3.489,4.507-5.201c1.218-2.887,0.631-6.3-0.898-9.035c-2.353-4.21-5.63-6.713-10.222-7.72
					c-16.122-3.534-30.159,3.681-37.827,18.605c-3.686,7.173-3.722,15.957-7.499,22.816c-2.332,4.234-5.817,6.676-7.934,11.257
					c-5.494,11.887-15.523,26.498-17.53,39.51c-0.074,0.482-0.122,1.022,0.174,1.409c0.602,0.789,1.848,0.216,2.628-0.397
					c4.553-3.581,9.105-7.163,13.657-10.744c1.788-1.406,3.6-2.838,4.931-4.683c3.313-4.593,3.394-11.358,7.844-14.861
					C189.087,372.565,192.004,371.82,194.896,370.996z"/>
			</g>
			<g>
				<g>
					<path style="fill:#C67A6D;" d="M119.391,346.379c-3.045,0.567-10.978-1.555-12.8-4.355c-4.206-6.462,5.773-4.473,9.377-4.56
						c-0.412-1.251-0.849-2.448-1.009-3.73c-0.146-1.175,10.563,1.876,11.595,2.998c2.477,2.692,1.347,4.726,1.124,8.131
						C124.912,345.302,122.151,345.863,119.391,346.379z"/>
				</g>
				<polygon style="fill:#474EBB;" points="203.609,411.334 145.089,401.597 118.141,346.949 128.854,338.122 157.37,375.963 
					187.165,374.697 214.743,375.892 				"/>
			</g>
		</g>
		<g>
			<g>
				
					<ellipse transform="matrix(0.9805 -0.1965 0.1965 0.9805 -56.895 32.0869)" style="fill:#D67086;" cx="133.211" cy="302.689" rx="16.415" ry="16.415"/>
				<g>
					<path style="fill:#D67086;" d="M139.737,250.24c-19.834-2.468-39.164,5.961-50.87,21.742l13.405,16.13
						c0.18-0.254,0.353-0.516,0.512-0.791c7.02-12.149,20.551-18.879,34.473-17.147c13.922,1.732,25.392,11.574,29.22,25.072
						c0.08,0.281,0.174,0.555,0.275,0.824l16.948-12.351C176.204,265.586,159.547,252.705,139.737,250.24z"/>
					<path style="fill:#D67086;" d="M144.196,214.405c-29.654-3.69-58.861,7.245-78.805,29.33l12.999,15.641
						c0.068-0.076,0.138-0.149,0.204-0.228c15.56-18.516,39.158-27.791,63.122-24.809c23.422,2.914,43.801,17.235,54.514,38.307
						c0.242,0.477,0.526,0.916,0.83,1.336l16.312-11.888C199.442,235.862,173.707,218.077,144.196,214.405z"/>
					<path style="fill:#D67086;" d="M148.535,179.54c-38.928-4.844-78.311,8.971-105.759,36.982l12.901,15.522
						c0.117-0.112,0.234-0.224,0.346-0.342c23.124-24.318,56.78-36.365,90.032-32.228c33.251,4.137,62.928,24.065,79.387,53.306
						c0.069,0.123,0.15,0.235,0.223,0.354l16.305-11.883C222.218,207.401,187.44,184.382,148.535,179.54z"/>
				</g>
			</g>
		</g>
		<path style="fill:#353A85;" d="M878.611,208.774c-7.967,0-15.12,3.473-20.038,8.984l-39.829-25.539
			c3.322-8.024,3.092-16.721-0.022-24.269l41.099-23.935c2.313,2.563,5.166,4.714,8.49,6.263
			c13.247,6.172,29.022,0.466,35.166-12.72c6.144-13.186,0.365-28.935-12.881-35.107c-13.247-6.172-29.023-0.466-35.166,12.72
			c-2.63,5.643-3.074,11.756-1.685,17.386l-42.302,24.635c-2.508-2.439-5.459-4.507-8.807-6.067
			c-15.988-7.449-35.028-0.562-42.443,15.352c-7.415,15.915-0.441,34.923,15.547,42.372c12.202,5.686,26.181,3.019,35.414-5.637
			l41.149,26.386c-1.039,3.844-0.986,7.809,0.015,11.507c2.53,12.202,13.339,21.374,26.291,21.374
			c14.83,0,26.852-12.022,26.852-26.852C905.463,220.796,893.441,208.774,878.611,208.774z"/>
		<g>
			<g id="XMLID_168_">
				<circle id="XMLID_202_" style="fill:#3B3387;" cx="510.093" cy="426.307" r="155.728"/>
				<path id="XMLID_169_" style="fill:#FFFFFF;" d="M623.132,378.552c-6.179-14.609-15.024-27.729-26.289-38.994
					c-11.265-11.265-24.384-20.11-38.994-26.289c-15.129-6.399-31.196-9.644-47.755-9.644c-16.559,0-32.626,3.244-47.755,9.644
					c-14.61,6.179-27.729,15.024-38.994,26.289c-11.265,11.265-20.11,24.385-26.289,38.994c-6.399,15.129-9.643,31.196-9.643,47.755
					c0,16.559,3.245,32.626,9.643,47.755c6.18,14.61,15.025,27.729,26.289,38.994c11.265,11.265,24.384,20.11,38.994,26.289
					c15.129,6.399,31.196,9.644,47.755,9.644c16.559,0,32.626-3.245,47.755-9.644c14.61-6.179,27.729-15.024,38.994-26.289
					c11.265-11.265,20.11-24.384,26.289-38.994c6.399-15.129,9.644-31.196,9.644-47.755
					C632.775,409.748,629.531,393.681,623.132,378.552z M450.465,422.525c0-9.606,1.099-19.01,3.261-28.129h50.195v58.354h-49.798
					C451.693,442.82,450.465,432.709,450.465,422.525z M540.9,341.863c8.861,10.36,15.915,21.644,20.966,33.539
					c0.931,2.193,1.786,4.411,2.581,6.648h-48.181v-62.935C522.048,323.266,531.468,330.835,540.9,341.863z M503.92,320.323v61.727
					h-46.549c0.764-2.151,1.585-4.284,2.475-6.394c5.003-11.857,11.996-23.112,20.784-33.454
					C489.278,332.026,498.006,324.726,503.92,320.323z M503.92,465.097v66.245c-5.872-5.095-14.343-13.237-22.817-24.147
					c-8.922-11.489-16.024-23.69-21.109-36.266c-0.782-1.934-1.516-3.878-2.202-5.831H503.92z M516.266,532.726v-67.63h47.758
					c-0.66,1.876-1.36,3.745-2.108,5.604c-5.044,12.538-12.093,24.709-20.953,36.175
					C531.625,518.959,522.196,527.727,516.266,532.726z M516.266,452.75v-58.354h51.828c2.162,9.118,3.261,18.522,3.261,28.129
					c0,10.184-1.227,20.295-3.656,30.225H516.266z M580.749,394.396h35.016c3.071,10.217,4.663,20.941,4.663,31.911
					c0,9.03-1.082,17.892-3.176,26.444H580.38c2.209-9.944,3.322-20.048,3.322-30.225
					C583.702,412.948,582.706,403.549,580.749,394.396z M588.112,348.288c9.888,9.889,17.664,21.325,23.111,33.762h-33.749
					c-1.235-3.879-2.644-7.707-4.244-11.473c-5.545-13.057-13.265-25.418-22.947-36.738c-5.007-5.854-10.003-10.806-14.556-14.883
					C555.401,323.615,573.456,333.632,588.112,348.288z M432.075,348.288c15.197-15.197,34.049-25.409,54.572-29.828
					c-4.7,4.168-9.9,9.286-15.111,15.378c-9.682,11.32-17.402,23.681-22.947,36.738c-1.599,3.766-3.009,7.594-4.244,11.473h-35.382
					C414.41,369.613,422.186,358.177,432.075,348.288z M404.421,394.396h36.649c-1.957,9.153-2.952,18.552-2.952,28.129
					c0,10.177,1.113,20.282,3.322,30.225h-38.506c-2.094-8.551-3.176-17.414-3.176-26.444
					C399.758,415.338,401.35,404.613,404.421,394.396z M432.075,504.326c-11.321-11.321-19.872-24.672-25.328-39.229h38.033
					c1.119,3.513,2.37,7.002,3.768,10.459c5.511,13.631,13.184,26.824,22.804,39.211c6.284,8.091,12.547,14.75,17.923,19.918
					C467.734,530.594,447.918,520.17,432.075,504.326z M588.112,504.326c-15.337,15.337-34.395,25.595-55.137,29.947
					c5.277-5.108,11.376-11.631,17.492-19.505c9.62-12.388,17.293-25.58,22.804-39.211c1.398-3.458,2.65-6.946,3.769-10.459h36.4
					C607.984,479.654,599.433,493.004,588.112,504.326z"/>
			</g>
		</g>
		<polygon style="fill:#EFBFA5;" points="351.88,467.434 365.539,463.353 364.049,457.439 354.076,458.163 354.669,455.039 
			343.406,459.955 344.126,466.312 		"/>
		<g>
			<g>
				<path style="fill:#FFFFFF;" d="M685.907,561.818c-1.056,0-2.031-0.405-2.748-1.139l-29.763-30.51l-18.468,23.642
					c-0.678,0.867-1.641,1.345-2.714,1.345c-1.656,0-3.351-1.198-3.941-2.787l-43.938-118.29c-0.542-1.46-0.224-2.902,0.851-3.897
					c0.656-0.838,1.612-1.315,2.652-1.315c0.473,0,0.957,0.097,1.436,0.29l117.161,46.852c1.47,0.587,2.459,1.804,2.648,3.255
					c0.185,1.432-0.453,2.843-1.709,3.775l-23.666,17.564l29.7,30.447c0.702,0.719,1.114,1.717,1.131,2.739
					c0.018,1.082-0.388,2.083-1.141,2.817l-24.682,24.08C687.979,561.405,686.955,561.818,685.907,561.818L685.907,561.818z
					 M652.997,520.293c1.094,0,2.166,0.43,2.868,1.15l30.149,30.905l19.055-18.591l-30.089-30.844
					c-0.81-0.83-1.208-1.896-1.12-3.001c0.095-1.185,0.74-2.302,1.771-3.067l21.648-16.067l-102.447-40.968l38.422,103.436
					l16.917-21.656C650.816,520.766,651.846,520.293,652.997,520.293z"/>
				<g>
					<path style="fill:#FFFFFF;" d="M714.508,529.976l-14.413-14.774l-14.061-14.413l10.63-7.89l11.623-8.627
						c1.709-1.268,2.575-3.215,2.317-5.206c-0.261-2.01-1.607-3.686-3.6-4.483l-21.02-8.406l-18.808-7.521l-0.997-0.399
						l-61.937-24.768l-7.2-2.879l-7.2-2.879c-0.662-0.265-1.338-0.399-2.008-0.399c-1.481,0-2.841,0.655-3.788,1.811
						c-1.453,1.414-1.897,3.474-1.155,5.473l6,16.152l8.937,24.059l14.489,39.006l9.113,24.534l3.695,9.947l1.705,4.591
						c0.815,2.195,3.079,3.788,5.382,3.788c1.556,0,2.949-0.687,3.924-1.935l7.515-9.621l9.87-12.635l15.432,15.819l9.068,9.295
						l2.018,2.068l2.018,2.068c1.008,1.034,2.375,1.603,3.848,1.603c1.444,0,2.859-0.572,3.881-1.569l16.605-16.2l8.077-7.88
						C716.612,535.616,716.628,532.149,714.508,529.976z M712.325,535.505c-8.227,8.027-16.454,16.053-24.682,24.08
						c-0.468,0.456-1.104,0.696-1.736,0.696c-0.603,0-1.202-0.218-1.648-0.675c-1.345-1.379-2.69-2.758-4.036-4.137
						c-8.985-9.211-17.97-18.421-26.956-27.632c-6.517,8.342-13.034,16.685-19.551,25.027c-0.416,0.533-0.954,0.754-1.503,0.754
						c-1.048,0-2.138-0.807-2.501-1.785c-1.8-4.846-3.6-9.692-5.4-14.538c-7.867-21.18-15.735-42.36-23.602-63.54
						c-4.979-13.404-9.958-26.808-14.936-40.211c-0.372-1.002-0.062-1.808,0.547-2.316c0.344-0.493,0.864-0.824,1.516-0.824
						c0.268,0,0.558,0.056,0.867,0.18c4.8,1.919,9.6,3.838,14.399,5.758c20.978,8.389,41.956,16.778,62.934,25.167
						c13.276,5.309,26.552,10.618,39.827,15.927c1.971,0.789,2.336,3.076,0.592,4.37c-8.359,6.204-16.718,12.408-25.078,18.612
						c0.701,0.719,1.402,1.438,2.103,2.156c9.609,9.85,19.217,19.699,28.826,29.548
						C713.199,533.034,713.263,534.591,712.325,535.505z"/>
					<path style="fill:#FFFFFF;" d="M676.08,501.841c-1.163-1.192-0.77-2.843,0.466-3.761c7.953-5.902,15.905-11.805,23.858-17.706
						c-3.396-1.358-6.792-2.716-10.188-4.075c-20.978-8.389-41.956-16.778-62.934-25.167c-11.698-4.678-23.397-9.357-35.095-14.035
						c1.199,3.228,2.398,6.456,3.597,9.685c7.867,21.18,15.735,42.36,23.602,63.54c4.462,12.013,8.924,24.026,13.387,36.039
						c6.203-7.941,12.407-15.882,18.61-23.824c0.382-0.488,0.992-0.708,1.615-0.708c0.665,0,1.343,0.25,1.769,0.687
						c1.345,1.379,2.69,2.758,4.036,4.137c9.062,9.289,18.124,18.579,27.186,27.868c7.085-6.912,14.17-13.824,21.255-20.736
						c-0.779-0.798-1.558-1.597-2.336-2.395C695.297,521.54,685.689,511.69,676.08,501.841z M686.041,550.176l-8.746-8.966
						l-16.294-16.703l-4.035-4.137c-1.001-1.026-2.447-1.614-3.969-1.614c-1.628,0-3.099,0.688-4.037,1.889l-9.305,11.912
						l-5.918,7.576l-4.988-13.429l-6.483-17.452l-8.398-22.607l-15.204-40.933l-1.184-3.188l28.661,11.461l31.467,12.583
						l31.467,12.583l5.081,2.032l-7.512,5.575l-11.929,8.853c-1.387,1.029-2.256,2.553-2.386,4.179
						c-0.124,1.553,0.427,3.043,1.552,4.196l14.413,14.774l14.413,14.774l0.191,0.196L686.041,550.176z"/>
				</g>
			</g>
			<polygon style="fill:#8CABEF;" points="677.764,500.138 705.24,479.746 588.079,432.894 632.018,551.183 653.082,524.219 
				685.943,557.904 698.284,545.864 710.625,533.824 			"/>
		</g>
		<g id="XMLID_167_">
			<polygon style="fill:#EFBFA5;" points="722.842,471.904 723.071,479.027 710.499,483.604 703.253,478.114 703.248,469.822 
				710.244,469.431 710.463,467.608 712.754,466.134 			"/>
		</g>
		<g>
			<path style="fill:#8CABEF;" d="M403.096,139.508l17.48,1.38l-36.277,81.19l-14.665-1.158l-15.113-56.796l-23.955,53.712
				l-14.664-1.157l-23.088-85.876l18.654,1.472l14.683,59.24l24.737-56.128l12.787,1.009l15.088,60.099L403.096,139.508z"/>
			<path style="fill:#8CABEF;" d="M535.2,149.936l17.48,1.38l-36.276,81.191l-14.665-1.158l-15.113-56.796l-23.955,53.712
				l-14.665-1.158l-23.089-85.876l18.655,1.473l14.683,59.24l24.736-56.129l12.789,1.01l15.088,60.099L535.2,149.936z"/>
			<path style="fill:#8CABEF;" d="M667.303,160.365l17.48,1.38l-36.276,81.19l-14.665-1.158l-15.113-56.796l-23.955,53.712
				l-14.665-1.158l-23.089-85.876l18.655,1.473l14.682,59.24l24.737-56.129l12.789,1.009l15.088,60.1L667.303,160.365z"/>
			<path style="fill:#8CABEF;" d="M681.793,226.556l19.124,1.509l-1.49,18.889l-19.124-1.509L681.793,226.556z"/>
		</g>
		<polygon style="fill:#C67A6D;" points="908.818,249.586 908.818,242.545 900.707,231.814 895.155,236.768 898.791,246.303 
			896.492,249.586 899.746,253.571 		"/>
	</g>
</g>
</svg>
