<svg xmlns="http://www.w3.org/2000/svg" version="1.1" xmlns:xlink="http://www.w3.org/1999/xlink" xmlns:svgjs="http://svgjs.dev/svgjs" width="1500" height="1500" viewBox="0 0 1500 1500"><rect width="1500" height="1500" fill="#ffffff"></rect><g transform="matrix(0.6666666666666666,0,0,0.6666666666666666,249.39393939393938,687.726929829832)"><svg viewBox="0 0 396 49" data-background-color="#ffffff" preserveAspectRatio="xMidYMid meet" height="185" width="1500" xmlns="http://www.w3.org/2000/svg" xmlns:xlink="http://www.w3.org/1999/xlink"><g id="tight-bounds" transform="matrix(1,0,0,1,0.2400000000000091,0.24092247301274483)"><svg viewBox="0 0 395.52 48.51815505397448" height="48.51815505397448" width="395.52"><g><svg viewBox="0 0 395.52 48.51815505397448" height="48.51815505397448" width="395.52"><g><svg viewBox="0 0 395.52 48.51815505397448" height="48.51815505397448" width="395.52"><g id="textblocktransform"><svg viewBox="0 0 395.52 48.51815505397448" height="48.51815505397448" width="395.52" id="textblock"><g><svg viewBox="0 0 395.52 48.51815505397448" height="48.51815505397448" width="395.52"><g transform="matrix(1,0,0,1,0,0)"><svg width="395.52" viewBox="3.45 -36.75 305.68 37.5" height="48.51815505397448" data-palette-color="#bb84e8"><path d="M30.7 0L30.7 0 5.25 0Q4.3 0 3.88-0.43 3.45-0.85 3.45-1.8L3.45-1.8 3.45-34.2Q3.45-35.15 3.88-35.58 4.3-36 5.25-36L5.25-36 13-36Q13.95-36 14.38-35.58 14.8-35.15 14.8-34.2L14.8-34.2 14.8-9.45 21.65-9.45 21.65-17.55Q21.65-18.5 22.08-18.93 22.5-19.35 23.45-19.35L23.45-19.35 30.7-19.35Q31.65-19.35 32.08-18.93 32.5-18.5 32.5-17.55L32.5-17.55 32.5-1.8Q32.5-0.85 32.08-0.43 31.65 0 30.7 0ZM60.5 0L39.2 0Q38.25 0 37.82-0.43 37.4-0.85 37.4-1.8L37.4-1.8 37.4-7.75Q37.4-8.7 37.82-9.13 38.25-9.55 39.2-9.55L39.2-9.55 44.15-9.55 44.15-26.35 39.2-26.35Q38.25-26.35 37.82-26.78 37.4-27.2 37.4-28.15L37.4-28.15 37.4-34.2Q37.4-35.15 37.82-35.58 38.25-36 39.2-36L39.2-36 60.5-36Q61.45-36 61.87-35.58 62.3-35.15 62.3-34.2L62.3-34.2 62.3-28.15Q62.3-27.2 61.87-26.78 61.45-26.35 60.5-26.35L60.5-26.35 55.65-26.35 55.65-9.55 60.5-9.55Q61.45-9.55 61.87-9.13 62.3-8.7 62.3-7.75L62.3-7.75 62.3-1.8Q62.3-0.85 61.87-0.43 61.45 0 60.5 0L60.5 0ZM77.75 0L77.75 0 70.25 0Q69.3 0 68.87-0.43 68.45-0.85 68.45-1.8L68.45-1.8 68.45-34.2Q68.45-35.15 68.87-35.58 69.3-36 70.25-36L70.25-36 75.45-36Q76.4-36 77.07-35.7 77.75-35.4 78.4-34.65L78.4-34.65 88.09-23.55 88.09-34.2Q88.09-35.15 88.52-35.58 88.95-36 89.9-36L89.9-36 97.4-36Q98.34-36 98.77-35.58 99.2-35.15 99.2-34.2L99.2-34.2 99.2-1.8Q99.2-0.85 98.77-0.43 98.34 0 97.4 0L97.4 0 89.9 0Q88.95 0 88.52-0.43 88.09-0.85 88.09-1.8L88.09-1.8 88.09-7.95 79.55-18.3 79.55-1.8Q79.55-0.85 79.12-0.43 78.7 0 77.75 0ZM115.64 0L115.64 0 107.89 0Q106.94 0 106.52-0.43 106.09-0.85 106.09-1.8L106.09-1.8 106.09-34.2Q106.09-35.15 106.52-35.58 106.94-36 107.89-36L107.89-36 115.64-36Q116.59-36 117.02-35.58 117.44-35.15 117.44-34.2L117.44-34.2 117.44-22.7 119.44-22.7 124.59-34.35Q124.94-35.25 125.54-35.63 126.14-36 127.09-36L127.09-36 134.79-36Q135.64-36 135.94-35.58 136.24-35.15 135.89-34.35L135.89-34.35 130.79-22.7Q133.59-22.55 135.27-20.73 136.94-18.9 136.94-15.9L136.94-15.9 136.94-1.8Q136.94-0.85 136.52-0.43 136.09 0 135.14 0L135.14 0 127.44 0Q126.49 0 126.07-0.43 125.64-0.85 125.64-1.8L125.64-1.8 125.64-11.55Q125.64-12.35 125.24-12.8 124.84-13.25 124.04-13.25L124.04-13.25 117.44-13.25 117.44-1.8Q117.44-0.85 117.02-0.43 116.59 0 115.64 0ZM160.09 0L160.09 0 144.29 0Q143.34 0 142.92-0.43 142.49-0.85 142.49-1.8L142.49-1.8 142.49-7.65Q142.49-8.6 142.92-9.03 143.34-9.45 144.29-9.45L144.29-9.45 157.74-9.45Q158.39-9.45 158.72-9.88 159.04-10.3 159.04-10.9L159.04-10.9Q159.04-11.75 158.72-12.15 158.39-12.55 157.74-12.6L157.74-12.6 150.24-13.65Q146.74-14.15 144.62-15.95 142.49-17.75 142.49-21.95L142.49-21.95 142.49-27.2Q142.49-31.45 145.24-33.73 147.99-36 152.84-36L152.84-36 166.84-36Q167.79-36 168.22-35.58 168.64-35.15 168.64-34.2L168.64-34.2 168.64-28.25Q168.64-27.3 168.22-26.88 167.79-26.45 166.84-26.45L166.84-26.45 155.19-26.45Q154.54-26.45 154.19-26.03 153.84-25.6 153.84-24.95L153.84-24.95Q153.84-24.3 154.19-23.85 154.54-23.4 155.19-23.35L155.19-23.35 162.64-22.35Q166.14-21.85 168.29-20.05 170.44-18.25 170.44-14.05L170.44-14.05 170.44-8.8Q170.44-4.55 167.67-2.27 164.89 0 160.09 0ZM199.84 0L199.84 0 187.64 0Q181.39 0 178.36-2.5 175.34-5 175.34-10.2L175.34-10.2 175.34-25.75Q175.34-30.95 178.36-33.48 181.39-36 187.64-36L187.64-36 199.84-36Q200.79-36 201.21-35.58 201.64-35.15 201.64-34.2L201.64-34.2 201.64-28.15Q201.64-27.2 201.21-26.78 200.79-26.35 199.84-26.35L199.84-26.35 189.79-26.35Q188.24-26.35 187.49-25.73 186.74-25.1 186.74-23.85L186.74-23.85 186.74-11.95Q186.74-10.7 187.49-10.13 188.24-9.55 189.79-9.55L189.79-9.55 199.84-9.55Q200.79-9.55 201.21-9.13 201.64-8.7 201.64-7.75L201.64-7.75 201.64-1.8Q201.64-0.85 201.21-0.43 200.79 0 199.84 0ZM237.54-26.5L237.54-9.45Q237.54-7.15 236.86-5.28 236.19-3.4 234.46-2.08 232.74-0.75 229.71 0 226.69 0.75 222.04 0.75L222.04 0.75Q217.39 0.75 214.34 0 211.29-0.75 209.56-2.08 207.84-3.4 207.16-5.28 206.49-7.15 206.49-9.45L206.49-9.45 206.49-26.5Q206.49-28.8 207.16-30.68 207.84-32.55 209.56-33.9 211.29-35.25 214.34-36 217.39-36.75 222.04-36.75L222.04-36.75Q226.69-36.75 229.71-36 232.74-35.25 234.46-33.9 236.19-32.55 236.86-30.68 237.54-28.8 237.54-26.5L237.54-26.5ZM217.84-24.7L217.84-11.25Q217.84-10.25 218.59-9.58 219.34-8.9 222.04-8.9L222.04-8.9Q224.74-8.9 225.49-9.58 226.24-10.25 226.24-11.25L226.24-11.25 226.24-24.7Q226.24-25.65 225.49-26.33 224.74-27 222.04-27L222.04-27Q219.34-27 218.59-26.33 217.84-25.65 217.84-24.7L217.84-24.7ZM274.53-34.2L274.53-9.45Q274.53-7.15 273.86-5.28 273.18-3.4 271.46-2.08 269.73-0.75 266.73 0 263.73 0.75 259.08 0.75L259.08 0.75Q254.43 0.75 251.43 0 248.43-0.75 246.71-2.08 244.98-3.4 244.31-5.28 243.63-7.15 243.63-9.45L243.63-9.45 243.63-34.2Q243.63-35.15 244.06-35.58 244.48-36 245.43-36L245.43-36 253.28-36Q254.23-36 254.66-35.58 255.08-35.15 255.08-34.2L255.08-34.2 255.08-11.4Q255.08-10.4 255.83-9.73 256.58-9.05 259.18-9.05L259.18-9.05Q261.83-9.05 262.58-9.73 263.33-10.4 263.33-11.4L263.33-11.4 263.33-34.2Q263.33-35.15 263.76-35.58 264.18-36 265.13-36L265.13-36 272.73-36Q273.68-36 274.11-35.58 274.53-35.15 274.53-34.2L274.53-34.2ZM298.18 0L298.18 0 290.08 0Q289.13 0 288.71-0.43 288.28-0.85 288.28-1.8L288.28-1.8 288.28-26.35 280.93-26.35Q279.98-26.35 279.56-26.78 279.13-27.2 279.13-28.15L279.13-28.15 279.13-34.2Q279.13-35.15 279.56-35.58 279.98-36 280.93-36L280.93-36 307.33-36Q308.28-36 308.71-35.58 309.13-35.15 309.13-34.2L309.13-34.2 309.13-28.15Q309.13-27.2 308.71-26.78 308.28-26.35 307.33-26.35L307.33-26.35 299.98-26.35 299.98-1.8Q299.98-0.85 299.56-0.43 299.13 0 298.18 0Z" opacity="1" transform="matrix(1,0,0,1,0,0)" fill="#bb84e8" class="wordmark-text-0" data-fill-palette-color="primary" id="text-0"></path></svg></g></svg></g></svg></g></svg></g><g></g></svg></g><defs></defs></svg><rect width="395.52" height="48.51815505397448" fill="none" stroke="none" visibility="hidden"></rect></g></svg></g></svg>